HIERARCHY
ROOT Hips
{
	OFFSET 0.00000 0.00000 0.00000
	CHANNELS 6 Xposition Yposition Zposition Zrotation Yrotation Xrotation 
	JOINT LHipJoint
	{
		OFFSET 0 0 0
		CHANNELS 3 Zrotation Yrotation Xrotation
		JOINT LeftHip
		{
			OFFSET 1.52977 -1.71332 0.88991
			CHANNELS 3 Zrotation Yrotation Xrotation
			JOINT LeftKnee
			{
				OFFSET 2.23949 -6.15296 0.00000
				CHANNELS 3 Zrotation Yrotation Xrotation
				JOINT LeftAnkle
				{
					OFFSET 2.68396 -7.37412 0.00000
					CHANNELS 3 Zrotation Yrotation Xrotation
					JOINT LeftToe
					{
						OFFSET 0.20538 -0.56428 2.52710
						CHANNELS 3 Zrotation Yrotation Xrotation
						End Site
						{
							OFFSET 0.00000 -0.00000 1.29919
						}
					}
				}
			}
		}
	}
	JOINT RHipJoint
	{
		OFFSET 0 0 0
		CHANNELS 3 Zrotation Yrotation Xrotation
		JOINT RightHip
		{
			OFFSET -1.45689 -1.71333 0.88991
			CHANNELS 3 Zrotation Yrotation Xrotation
			JOINT RightKnee
			{
				OFFSET -2.36700 -6.50329 0.00000
				CHANNELS 3 Zrotation Yrotation Xrotation
				JOINT RightAnkle
				{
					OFFSET -2.69814 -7.41308 0.00000
					CHANNELS 3 Zrotation Yrotation Xrotation
					JOINT RightToe
					{
						OFFSET -0.18734 -0.51471 2.37479
						CHANNELS 3 Zrotation Yrotation Xrotation
						End Site
						{
							OFFSET -0.00000 -0.00000 1.22113
						}
					}
				}
			}
		}
	}
	JOINT lowerback
	{
		OFFSET 0 0 0
		CHANNELS 3 Zrotation Yrotation Xrotation
		JOINT Chest
		{
			OFFSET 0.04294 2.14638 -0.31163
			CHANNELS 3 Zrotation Yrotation Xrotation
			JOINT Chest2
			{
				OFFSET -0.00400 2.17216 0.01486
				CHANNELS 3 Zrotation Yrotation Xrotation
				JOINT lowerneck
				{
					OFFSET 0 0 0
					CHANNELS 3 Zrotation Yrotation Xrotation
					JOINT Neck
					{
						OFFSET 0.03869 1.76598 0.14916
						CHANNELS 3 Zrotation Yrotation Xrotation
						JOINT Head
						{
							OFFSET -0.00760 1.75513 -0.18948
							CHANNELS 3 Zrotation Yrotation Xrotation
							End Site
							{
								OFFSET -0.00601 1.82444 -0.08310
							}
						}
					}
				}
				JOINT LeftCollar
				{
					OFFSET 0 0 0
					CHANNELS 3 Zrotation Yrotation Xrotation
					JOINT LeftShoulder
					{
						OFFSET 3.73696 0.92058 0.01733
CHANNELS 3 Zrotation Xrotation Yrotation
						JOINT LeftElbow
						{
OFFSET 0 -5.227710 0.000000
CHANNELS 3 Zrotation Xrotation Yrotation
							JOINT LeftWrist
							{
OFFSET 0 -3.452510 0.000000
CHANNELS 3 Zrotation Xrotation Yrotation
								JOINT lhand
								{
									OFFSET 0 0 0
CHANNELS 3 Zrotation Xrotation Yrotation
									JOINT LFingers
									{
OFFSET 0 -0.552120 0.000000
CHANNELS 3 Zrotation Xrotation Yrotation
										End Site
										{
OFFSET 0 -0.445130 0.000000
										}
									}
								}
								JOINT LThumb
								{
OFFSET 0 0.000000 0.000000
CHANNELS 3 Zrotation Xrotation Yrotation
									End Site
									{
OFFSET 0 -0.451930 0.451930
									}
								}
							}
						}
					}
				}
				JOINT RightCollar
				{
					OFFSET 0 0 0
					CHANNELS 3 Zrotation Yrotation Xrotation
					JOINT RightShoulder
					{
						OFFSET -3.63819 0.83094 -0.13694
CHANNELS 3 Zrotation Xrotation Yrotation
						JOINT RightElbow
						{
OFFSET 0 -5.239800 -0.000000
CHANNELS 3 Zrotation Xrotation Yrotation
							JOINT RightWrist
							{
OFFSET 0 -3.480420 -0.000000
CHANNELS 3 Zrotation Xrotation Yrotation
								JOINT rhand
								{
									OFFSET 0 0 0
CHANNELS 3 Zrotation Xrotation Yrotation
									JOINT RFingers
									{
OFFSET 0 -0.618710 0.000000
CHANNELS 3 Zrotation Xrotation Yrotation
										End Site
										{
OFFSET 0 -0.498820 0.000000
										}
									}
								}
								JOINT RThumb
								{
OFFSET 0 0.000000 0.000000
CHANNELS 3 Zrotation Xrotation Yrotation
									End Site
									{
OFFSET 0 -0.506440 0.506440
									}
								}
							}
						}
					}
				}
			}
		}
	}
}
MOTION
Frames: 7
Frame Time: 0.008333333333333333
-36.981600 16.974000 -6.426900 -170.563000 -83.650800 165.810000 0.000000 0.000000 0.000000 -18.977000 7.323000 0.157400 1.374000 7.417900 20.959500 0.865600 0.488000 -17.766300 0.083800 -1.867400 -5.139300 0.000000 0.000000 0.000000 23.110900 10.977300 -2.133000 -3.323500 -11.201200 32.961500 -1.728000 -5.170300 -27.141200 -0.031000 -1.135900 3.122800 0.535500 -1.109900 -0.033500 -0.113700 -1.507000 2.312700 -0.448300 -0.749600 2.372200 3.018900 0.575300 -6.508600 1.404400 0.439800 2.040800 -0.056900 0.270300 1.745500 -0.000000 0.000000 0.000000 1.735200 1.022400 -25.710000 12.036100 -19.858800 2.114500 18.173400 -11.402500 -13.879700 0.000000 0.000000 0.000000 -7.125000 0.000000 0.000000 -8.540800 44.388500 -0.129900 -0.000000 0.000000 0.000000 -0.425300 4.778000 25.612400 -15.220600 -24.452500 -3.316700 -18.393700 2.999700 7.130800 0.000000 0.000000 0.000000 7.125000 0.000000 -0.000000 7.145300 37.404600 1.343900
-36.989310 16.996051 -6.452326 -171.478225 -83.673331 166.763043 0.000000 0.000000 0.000000 -19.045537 7.427751 0.120082 1.366223 7.397789 20.899304 0.824485 0.818247 -17.471271 0.092928 -1.964863 -5.408588 0.000000 0.000000 0.000000 23.032953 10.625226 -1.975594 -3.254869 -11.096575 32.606272 -1.747552 -4.815697 -27.088343 -0.039840 -1.287995 3.541535 0.548122 -1.088280 -0.224127 -0.178996 -1.479769 2.429008 -0.527538 -0.734360 2.597616 3.068065 0.602956 -6.660696 1.254075 0.473654 1.971321 -0.111155 0.283512 1.751145 0.000000 0.000000 0.000000 1.801206 0.725619 -25.442224 11.968353 -19.757129 2.091589 17.617573 -11.077722 -14.701774 0.000000 0.000000 0.000000 -7.125000 0.000000 0.000000 -9.240915 45.168121 0.038948 0.000000 0.000000 0.000000 -0.478609 4.327634 26.240042 -15.355487 -24.638943 -3.372800 -18.508700 2.716333 7.137369 0.000000 0.000000 0.000000 7.125000 0.000000 0.000000 7.049066 37.418644 1.323162
-36.999529 17.017776 -6.482831 -171.862040 -83.689582 167.214845 0.000000 0.000000 0.000000 -19.038218 7.547577 0.066641 1.355035 7.368715 20.812418 0.786134 1.180959 -17.217259 0.110946 -2.147120 -5.912451 0.000000 0.000000 0.000000 23.059021 10.377050 -1.802012 -3.186863 -10.991528 32.251404 -1.767529 -4.531186 -27.079969 -0.053014 -1.485488 4.085664 0.535416 -1.095662 -0.314405 -0.198857 -1.487571 2.354906 -0.541864 -0.737785 2.571757 3.060585 0.666602 -6.494313 1.198639 0.568763 2.008794 -0.124180 0.330131 1.734634 0.000000 0.000000 0.000000 1.872127 0.750217 -25.223062 11.910866 -19.670899 2.072239 17.775714 -11.020675 -14.494478 0.000000 0.000000 0.000000 -7.125000 0.000000 0.000000 -9.046081 44.974450 -0.005687 0.000000 0.000000 0.000000 -0.557362 4.196513 26.860941 -15.492449 -24.827602 -3.430063 -18.475881 2.495234 7.226639 0.000000 0.000000 0.000000 7.125000 0.000000 0.000000 7.088887 37.509663 1.314809
-37.008879 17.037406 -6.513161 -172.455501 -83.702232 167.907292 0.000000 0.000000 0.000000 -19.091838 7.593016 0.048600 1.334368 7.314582 20.650794 0.754238 1.625342 -17.070939 0.118288 -2.217171 -6.106149 0.000000 0.000000 0.000000 23.052704 10.184742 -1.663582 -3.118341 -10.884131 31.890076 -1.781886 -4.234310 -27.029169 -0.067689 -1.678862 4.618888 0.494137 -1.082812 -0.446029 -0.213019 -1.468503 2.297441 -0.534979 -0.728369 2.587588 3.053800 0.701330 -6.509412 1.127142 0.616202 2.193411 -0.143652 0.355674 1.798362 0.000000 0.000000 0.000000 1.923686 0.722662 -25.037550 11.868007 -19.606316 2.057773 18.008289 -10.991814 -14.091967 0.000000 0.000000 0.000000 -7.125000 0.000000 0.000000 -8.739282 44.588066 -0.089505 0.000000 0.000000 0.000000 -0.632573 4.035912 27.330001 -15.645048 -25.036999 -3.494384 -18.481731 2.279351 7.246175 0.000000 0.000000 0.000000 7.125000 0.000000 0.000000 7.086626 37.530392 1.310808
-37.019399 17.051350 -6.541974 -173.119788 -83.711844 168.654973 0.000000 0.000000 0.000000 -19.187088 7.594409 0.134867 1.302874 7.230913 20.401380 0.732576 2.131241 -17.076213 0.114339 -2.180031 -6.003504 0.000000 0.000000 0.000000 23.029663 10.041250 -1.544874 -3.050540 -10.776364 31.529301 -1.789012 -3.842966 -26.886787 -0.081235 -1.838269 5.058979 0.454323 -1.065965 -0.580628 -0.227031 -1.443895 2.234916 -0.528368 -0.716197 2.599820 3.051613 0.738805 -6.517859 1.061252 0.666286 2.427441 -0.161984 0.383306 1.877210 0.000000 0.000000 0.000000 1.986003 0.743366 -24.986636 11.864585 -19.601226 2.056612 17.983410 -11.034910 -14.002542 0.000000 0.000000 0.000000 -7.125000 0.000000 0.000000 -8.741255 44.493002 -0.110192 0.000000 0.000000 0.000000 -0.689372 3.914263 27.665383 -15.797287 -25.245046 -3.559067 -18.515844 2.072584 7.259062 0.000000 0.000000 0.000000 7.125000 0.000000 0.000000 7.059519 37.546149 1.302990
-37.030363 17.059712 -6.568648 -173.669987 -83.712842 169.271107 0.000000 0.000000 0.000000 -19.285768 7.588805 0.333451 1.257193 7.108020 20.035924 0.721502 2.642097 -17.214464 0.100325 -2.042268 -5.622564 0.000000 0.000000 0.000000 23.011444 9.901325 -1.452028 -2.995441 -10.687700 31.233711 -1.795595 -3.455431 -26.747820 -0.095196 -1.989589 5.476935 0.435320 -1.049850 -0.735246 -0.232957 -1.421238 2.194444 -0.525908 -0.704604 2.645794 3.046274 0.775405 -6.546308 1.011332 0.714050 2.666747 -0.174796 0.410059 1.961548 0.000000 0.000000 0.000000 2.048361 0.786340 -25.030715 11.920611 -19.685452 2.075490 17.610179 -11.055255 -14.499274 0.000000 0.000000 0.000000 -7.125000 0.000000 0.000000 -9.198142 44.959525 -0.009112 0.000000 0.000000 0.000000 -0.740644 3.770184 27.920127 -15.927686 -25.422405 -3.614835 -18.561752 1.873015 7.289261 0.000000 0.000000 0.000000 7.125000 0.000000 0.000000 7.024759 37.580570 1.290501
-37.039348 17.063787 -6.592874 -173.580114 -83.697264 169.281267 0.000000 0.000000 0.000000 -19.323830 7.520720 0.613876 1.195395 6.937363 19.530008 0.719093 3.151413 -17.465245 0.082264 -1.850079 -5.091577 0.000000 0.000000 0.000000 23.044052 9.743813 -1.463931 -2.957085 -10.625292 31.026210 -1.792016 -3.249433 -26.627813 -0.105595 -2.095506 5.769749 0.485506 -1.037160 -0.922889 -0.204502 -1.405793 2.164614 -0.527912 -0.695413 2.720578 3.046454 0.808779 -6.602621 0.941082 0.757107 2.891891 -0.195088 0.433644 2.046760 0.000000 0.000000 0.000000 2.089171 0.834958 -25.127536 12.030439 -19.850300 2.112658 17.262319 -11.101370 -15.008821 0.000000 0.000000 0.000000 -7.125000 0.000000 0.000000 -9.642247 45.439213 0.105540 0.000000 0.000000 0.000000 -0.809667 3.600135 28.122322 -16.041806 -25.577272 -3.664032 -18.582923 1.699651 7.321155 0.000000 0.000000 0.000000 7.125000 0.000000 0.000000 7.011197 37.615295 1.282009
